<svg xmlns="http://www.w3.org/2000/svg" xmlns:xlink="http://www.w3.org/1999/xlink" width="500" zoomAndPan="magnify" viewBox="0 0 375 374.999991" height="500" preserveAspectRatio="xMidYMid meet" version="1.0"><defs><g/><clipPath id="af4a043bc4"><path d="M 149 32.820312 L 316 32.820312 L 316 297 L 149 297 Z M 149 32.820312 " clip-rule="nonzero"/></clipPath><clipPath id="8a4a5c5b09"><path d="M 44.332031 156.371094 L 107.917969 156.371094 L 107.917969 257.960938 L 44.332031 257.960938 Z M 44.332031 156.371094 " clip-rule="nonzero"/></clipPath><clipPath id="2b29a44944"><path d="M 44.332031 159 L 50 159 L 50 255 L 44.332031 255 Z M 44.332031 159 " clip-rule="nonzero"/></clipPath><clipPath id="d777b03d25"><path d="M 44.332031 156.371094 L 76 156.371094 L 76 257.960938 L 44.332031 257.960938 Z M 44.332031 156.371094 " clip-rule="nonzero"/></clipPath></defs><g clip-path="url(#af4a043bc4)"><path fill="#358c9c" d="M 256.882812 140.222656 L 305.542969 91.5625 C 318.984375 78.121094 318.984375 56.335938 305.542969 42.894531 C 292.109375 29.464844 270.324219 29.464844 256.882812 42.894531 L 159.554688 140.222656 C 146.113281 153.664062 146.113281 175.449219 159.554688 188.890625 L 256.882812 286.21875 C 270.324219 299.660156 292.109375 299.660156 305.542969 286.21875 C 318.984375 272.777344 318.984375 250.992188 305.542969 237.550781 L 256.882812 188.890625 C 243.441406 175.449219 243.441406 153.664062 256.882812 140.222656 " fill-opacity="1" fill-rule="nonzero"/></g><path fill="#358c9c" d="M 306.996094 155.3125 L 325.507812 136.8125 C 330.605469 131.707031 330.605469 123.421875 325.507812 118.316406 C 320.398438 113.207031 312.105469 113.207031 306.996094 118.316406 L 270.011719 155.3125 C 264.902344 160.421875 264.902344 168.703125 270.011719 173.8125 L 306.996094 210.808594 C 312.105469 215.917969 320.398438 215.917969 325.507812 210.808594 C 330.605469 205.699219 330.605469 197.417969 325.507812 192.308594 L 306.996094 173.8125 C 301.898438 168.703125 301.898438 160.421875 306.996094 155.3125 " fill-opacity="1" fill-rule="nonzero"/><path fill="#2c7380" d="M 316.246094 114.488281 C 317.140625 114.488281 318.046875 114.582031 318.933594 114.761719 C 316.523438 115.273438 314.230469 116.441406 312.359375 118.316406 L 275.363281 155.3125 C 270.265625 160.421875 270.265625 168.703125 275.363281 173.8125 L 312.359375 210.808594 C 314.230469 212.671875 316.523438 213.851562 318.933594 214.347656 C 318.046875 214.53125 317.140625 214.625 316.246094 214.625 C 312.898438 214.625 309.550781 213.351562 306.996094 210.808594 L 270.011719 173.8125 C 267.457031 171.257812 266.175781 167.910156 266.175781 164.5625 C 266.175781 161.214844 267.457031 157.867188 270.011719 155.3125 L 306.996094 118.316406 C 309.550781 115.761719 312.898438 114.488281 316.246094 114.488281 " fill-opacity="1" fill-rule="nonzero"/><path fill="#2c7380" d="M 176.222656 123.554688 L 224.710938 172.039062 C 238.140625 185.480469 238.140625 207.265625 224.710938 220.710938 L 208.042969 237.375 L 159.554688 188.890625 C 152.832031 182.175781 149.472656 173.363281 149.472656 164.5625 C 149.472656 155.75 152.832031 146.949219 159.554688 140.222656 L 176.222656 123.554688 " fill-opacity="1" fill-rule="nonzero"/><path fill="#edb934" d="M 116.78125 231.3125 L 68.109375 279.980469 C 54.667969 293.410156 54.667969 315.207031 68.109375 328.640625 C 81.550781 342.082031 103.335938 342.082031 116.78125 328.640625 L 214.105469 231.3125 C 227.539062 217.878906 227.539062 196.085938 214.105469 182.652344 L 116.78125 85.328125 C 103.335938 71.882812 81.550781 71.882812 68.109375 85.328125 C 54.667969 98.757812 54.667969 120.554688 68.109375 133.984375 L 116.78125 182.652344 C 130.210938 196.085938 130.210938 217.878906 116.78125 231.3125 " fill-opacity="1" fill-rule="nonzero"/><g clip-path="url(#8a4a5c5b09)"><path fill="#edb934" d="M 66.65625 216.230469 L 48.15625 234.730469 C 43.050781 239.839844 43.050781 248.121094 48.15625 253.230469 C 53.265625 258.335938 61.546875 258.335938 66.65625 253.230469 L 103.652344 216.230469 C 108.761719 211.125 108.761719 202.839844 103.652344 197.734375 L 66.65625 160.734375 C 61.546875 155.628906 53.265625 155.628906 48.15625 160.734375 C 43.050781 165.84375 43.050781 174.125 48.15625 179.234375 L 66.65625 197.734375 C 71.765625 202.839844 71.765625 211.125 66.65625 216.230469 " fill-opacity="1" fill-rule="nonzero"/></g><g clip-path="url(#2b29a44944)"><path fill="#d3d2d2" d="M 49.683594 159.421875 C 49.152344 159.820312 48.636719 160.257812 48.15625 160.734375 C 45.601562 163.289062 44.332031 166.636719 44.332031 169.984375 C 44.332031 166.636719 45.601562 163.289062 48.15625 160.734375 C 48.636719 160.257812 49.152344 159.820312 49.683594 159.421875 M 48.15625 253.230469 C 48.605469 253.675781 49.082031 254.09375 49.582031 254.472656 C 49.082031 254.09375 48.605469 253.675781 48.15625 253.230469 " fill-opacity="1" fill-rule="nonzero"/></g><g clip-path="url(#d777b03d25)"><path fill="#cb6e11" d="M 57.394531 156.910156 C 58.300781 156.910156 59.195312 157 60.082031 157.195312 C 57.679688 157.691406 55.390625 158.875 53.519531 160.734375 C 48.410156 165.84375 48.410156 174.125 53.519531 179.234375 L 72.019531 197.734375 C 77.125 202.839844 77.125 211.125 72.019531 216.230469 L 53.519531 234.730469 C 48.410156 239.839844 48.410156 248.121094 53.519531 253.230469 C 55.390625 255.101562 57.679688 256.273438 60.082031 256.78125 C 59.195312 256.964844 58.300781 257.054688 57.394531 257.054688 C 54.648438 257.054688 51.890625 256.191406 49.582031 254.472656 C 49.082031 254.09375 48.605469 253.675781 48.15625 253.230469 C 45.601562 250.675781 44.332031 247.328125 44.332031 243.980469 C 44.332031 240.632812 45.601562 237.285156 48.15625 234.730469 L 66.65625 216.230469 C 69.210938 213.679688 70.492188 210.332031 70.492188 206.984375 C 70.492188 203.636719 69.210938 200.289062 66.65625 197.734375 L 48.15625 179.234375 C 45.601562 176.679688 44.332031 173.332031 44.332031 169.984375 C 44.332031 166.636719 45.601562 163.289062 48.15625 160.734375 C 48.636719 160.257812 49.152344 159.820312 49.683594 159.421875 C 51.972656 157.742188 54.691406 156.910156 57.394531 156.910156 " fill-opacity="1" fill-rule="nonzero"/></g><g fill="#f9f8f9" fill-opacity="1"><g transform="translate(153.890546, 328.74997)"><g><path d="M 10.078125 0.40625 C 8.609375 0.40625 7.257812 0.234375 6.03125 -0.109375 C 4.8125 -0.453125 3.769531 -0.925781 2.90625 -1.53125 C 2.039062 -2.132812 1.398438 -2.828125 0.984375 -3.609375 L 3.984375 -6.859375 L 4.390625 -6.859375 C 5.109375 -5.890625 5.957031 -5.164062 6.9375 -4.6875 C 7.914062 -4.207031 8.976562 -3.96875 10.125 -3.96875 C 11.175781 -3.96875 11.96875 -4.15625 12.5 -4.53125 C 13.03125 -4.90625 13.296875 -5.445312 13.296875 -6.15625 C 13.296875 -6.695312 13.101562 -7.15625 12.71875 -7.53125 C 12.34375 -7.90625 11.722656 -8.195312 10.859375 -8.40625 L 8.015625 -9.078125 C 5.878906 -9.585938 4.316406 -10.363281 3.328125 -11.40625 C 2.347656 -12.457031 1.859375 -13.789062 1.859375 -15.40625 C 1.859375 -16.75 2.195312 -17.914062 2.875 -18.90625 C 3.5625 -19.894531 4.523438 -20.648438 5.765625 -21.171875 C 7.015625 -21.691406 8.46875 -21.953125 10.125 -21.953125 C 12.0625 -21.953125 13.664062 -21.671875 14.9375 -21.109375 C 16.21875 -20.554688 17.21875 -19.8125 17.9375 -18.875 L 15.046875 -15.75 L 14.65625 -15.75 C 14.050781 -16.425781 13.375 -16.921875 12.625 -17.234375 C 11.875 -17.546875 11.039062 -17.703125 10.125 -17.703125 C 7.988281 -17.703125 6.921875 -17.035156 6.921875 -15.703125 C 6.921875 -15.140625 7.117188 -14.679688 7.515625 -14.328125 C 7.910156 -13.984375 8.609375 -13.703125 9.609375 -13.484375 L 12.265625 -12.890625 C 14.453125 -12.421875 16.050781 -11.664062 17.0625 -10.625 C 18.070312 -9.59375 18.578125 -8.207031 18.578125 -6.46875 C 18.578125 -5.101562 18.238281 -3.898438 17.5625 -2.859375 C 16.882812 -1.816406 15.90625 -1.007812 14.625 -0.4375 C 13.351562 0.125 11.835938 0.40625 10.078125 0.40625 Z M 10.078125 0.40625 "/></g></g></g><g fill="#f9f8f9" fill-opacity="1"><g transform="translate(173.751891, 328.74997)"><g><path d="M 14.859375 -5.140625 L 16.265625 -1.140625 C 15.679688 -0.648438 14.945312 -0.269531 14.0625 0 C 13.175781 0.269531 12.175781 0.40625 11.0625 0.40625 C 8.726562 0.40625 6.953125 -0.226562 5.734375 -1.5 C 4.523438 -2.769531 3.921875 -4.613281 3.921875 -7.03125 L 3.921875 -17.265625 L 0.640625 -17.265625 L 0.640625 -21.5625 L 3.921875 -21.5625 L 3.921875 -25.765625 L 9.34375 -26.640625 L 9.34375 -21.5625 L 15.453125 -21.5625 L 15.453125 -17.265625 L 9.34375 -17.265625 L 9.34375 -7.421875 C 9.34375 -6.359375 9.5625 -5.582031 10 -5.09375 C 10.445312 -4.601562 11.09375 -4.359375 11.9375 -4.359375 C 12.894531 -4.359375 13.734375 -4.617188 14.453125 -5.140625 Z M 14.859375 -5.140625 "/></g></g></g><g fill="#f9f8f9" fill-opacity="1"><g transform="translate(190.488542, 328.74997)"><g><path d="M 8.40625 0.40625 C 7.019531 0.40625 5.816406 0.15625 4.796875 -0.34375 C 3.785156 -0.851562 3.003906 -1.597656 2.453125 -2.578125 C 1.910156 -3.566406 1.640625 -4.753906 1.640625 -6.140625 C 1.640625 -7.410156 1.910156 -8.476562 2.453125 -9.34375 C 3.003906 -10.207031 3.851562 -10.914062 5 -11.46875 C 6.144531 -12.03125 7.644531 -12.457031 9.5 -12.75 C 10.78125 -12.957031 11.753906 -13.1875 12.421875 -13.4375 C 13.097656 -13.6875 13.550781 -13.96875 13.78125 -14.28125 C 14.019531 -14.59375 14.140625 -14.988281 14.140625 -15.46875 C 14.140625 -16.15625 13.898438 -16.679688 13.421875 -17.046875 C 12.941406 -17.410156 12.140625 -17.59375 11.015625 -17.59375 C 9.816406 -17.59375 8.675781 -17.328125 7.59375 -16.796875 C 6.519531 -16.265625 5.582031 -15.5625 4.78125 -14.6875 L 4.390625 -14.6875 L 2.125 -18.109375 C 3.21875 -19.316406 4.550781 -20.257812 6.125 -20.9375 C 7.707031 -21.613281 9.429688 -21.953125 11.296875 -21.953125 C 14.140625 -21.953125 16.195312 -21.347656 17.46875 -20.140625 C 18.75 -18.929688 19.390625 -17.210938 19.390625 -14.984375 L 19.390625 -5.625 C 19.390625 -4.664062 19.816406 -4.1875 20.671875 -4.1875 C 20.992188 -4.1875 21.3125 -4.242188 21.625 -4.359375 L 21.890625 -4.28125 L 22.28125 -0.515625 C 21.988281 -0.316406 21.570312 -0.15625 21.03125 -0.03125 C 20.5 0.09375 19.914062 0.15625 19.28125 0.15625 C 17.988281 0.15625 16.976562 -0.0859375 16.25 -0.578125 C 15.53125 -1.078125 15.015625 -1.851562 14.703125 -2.90625 L 14.296875 -2.953125 C 13.242188 -0.710938 11.28125 0.40625 8.40625 0.40625 Z M 10.125 -3.640625 C 11.375 -3.640625 12.367188 -4.054688 13.109375 -4.890625 C 13.859375 -5.734375 14.234375 -6.90625 14.234375 -8.40625 L 14.234375 -10.59375 L 13.875 -10.671875 C 13.539062 -10.410156 13.109375 -10.191406 12.578125 -10.015625 C 12.054688 -9.835938 11.300781 -9.664062 10.3125 -9.5 C 9.144531 -9.300781 8.300781 -8.960938 7.78125 -8.484375 C 7.269531 -8.015625 7.015625 -7.34375 7.015625 -6.46875 C 7.015625 -5.539062 7.285156 -4.835938 7.828125 -4.359375 C 8.378906 -3.878906 9.144531 -3.640625 10.125 -3.640625 Z M 10.125 -3.640625 "/></g></g></g><g fill="#f9f8f9" fill-opacity="1"><g transform="translate(213.201172, 328.74997)"><g><path d="M 12.5625 0.40625 C 10.476562 0.40625 8.632812 -0.0234375 7.03125 -0.890625 C 5.425781 -1.753906 4.175781 -3.023438 3.28125 -4.703125 C 2.382812 -6.390625 1.9375 -8.410156 1.9375 -10.765625 C 1.9375 -13.128906 2.382812 -15.148438 3.28125 -16.828125 C 4.175781 -18.515625 5.414062 -19.789062 7 -20.65625 C 8.59375 -21.519531 10.414062 -21.953125 12.46875 -21.953125 C 17.007812 -21.953125 19.914062 -20.304688 21.1875 -17.015625 L 17.484375 -14.359375 L 17.078125 -14.359375 C 16.628906 -15.367188 16.050781 -16.117188 15.34375 -16.609375 C 14.632812 -17.109375 13.675781 -17.359375 12.46875 -17.359375 C 10.90625 -17.359375 9.6875 -16.816406 8.8125 -15.734375 C 7.9375 -14.660156 7.5 -13.003906 7.5 -10.765625 C 7.5 -8.546875 7.941406 -6.894531 8.828125 -5.8125 C 9.710938 -4.726562 10.957031 -4.1875 12.5625 -4.1875 C 13.726562 -4.1875 14.71875 -4.5 15.53125 -5.125 C 16.351562 -5.757812 16.9375 -6.671875 17.28125 -7.859375 L 17.703125 -7.890625 L 21.546875 -5.78125 C 20.992188 -3.957031 19.976562 -2.46875 18.5 -1.3125 C 17.03125 -0.164062 15.050781 0.40625 12.5625 0.40625 Z M 12.5625 0.40625 "/></g></g></g><g fill="#f9f8f9" fill-opacity="1"><g transform="translate(235.406038, 328.74997)"><g><path d="M 3.109375 0 L 3.109375 -30.203125 L 8.515625 -30.203125 L 8.515625 -13.4375 L 9.046875 -13.4375 L 15.28125 -21.546875 L 20.765625 -21.546875 L 20.765625 -21.09375 L 13.4375 -11.640625 L 21.578125 -0.484375 L 21.578125 0 L 15.875 0 L 9.046875 -9.078125 L 8.515625 -9.078125 L 8.515625 0 Z M 3.109375 0 "/></g></g></g></svg>